<svg width="120" height="127" viewBox="0 0 120 127" fill="none" xmlns="http://www.w3.org/2000/svg">
<mask id="path-1-outside-1_70_4" maskUnits="userSpaceOnUse" x="0" y="0" width="120" height="127" fill="black">
<rect fill="white" width="120" height="127"/>
<path fill-rule="evenodd" clip-rule="evenodd" d="M91.62 15.96V23.69H103.81H103.82V23.71C107.67 23.72 111.16 25.28 113.68 27.81C116.18 30.32 117.74 33.79 117.75 37.63H117.77V37.65V110.92V110.93H117.75C117.74 114.77 116.18 118.26 113.65 120.79C111.14 123.29 107.67 124.85 103.83 124.86V124.88H103.81H42.11H42.1V124.86C38.26 124.85 34.76 123.29 32.24 120.76C29.74 118.25 28.18 114.78 28.17 110.94H28.15V110.92V94.51H15.96H15.95V94.49C12.11 94.48 8.61 92.92 6.09 90.39C3.59 87.88 2.03 84.41 2.02 80.57H2V80.55V15.96V15.95H2.02C2.03 12.1 3.6 8.61 6.12 6.09C8.63 3.59 12.1 2.03 15.94 2.02V2H15.96H77.66H77.67V2.02C81.52 2.03 85.01 3.59 87.53 6.12C90.03 8.63 91.59 12.1 91.6 15.94H91.62V15.96ZM81.04 23.69V15.96V15.94H81.06C81.06 15.03 80.67 14.19 80.05 13.57C79.44 12.96 78.59 12.57 77.68 12.57V12.59H77.67H15.97H15.95V12.57C15.04 12.57 14.2 12.96 13.58 13.58C12.97 14.19 12.58 15.04 12.58 15.95H12.6V15.96V80.55V80.57H12.58C12.58 81.48 12.97 82.32 13.59 82.94C14.2 83.55 15.05 83.94 15.96 83.94V83.92H15.97H28.16V37.65V37.64H28.18C28.19 33.79 29.76 30.3 32.28 27.78C34.79 25.28 38.26 23.72 42.1 23.71V23.69H42.12H81.04ZM107.18 110.92V37.65V37.63H107.2C107.2 36.72 106.81 35.88 106.19 35.26C105.58 34.65 104.73 34.26 103.82 34.26V34.28H103.81H42.11H42.09V34.26C41.18 34.26 40.34 34.65 39.72 35.27C39.11 35.88 38.72 36.73 38.72 37.64H38.74V37.65V110.92V110.94H38.72C38.72 111.85 39.11 112.69 39.73 113.31C40.34 113.92 41.19 114.31 42.1 114.31V114.29H42.11H103.81H103.83V114.31C104.74 114.31 105.58 113.92 106.2 113.3C106.81 112.69 107.2 111.84 107.2 110.93H107.18V110.92Z"/>
</mask>
<path fill-rule="evenodd" clip-rule="evenodd" d="M91.62 15.96V23.69H103.81H103.82V23.71C107.67 23.72 111.16 25.28 113.68 27.81C116.18 30.32 117.74 33.79 117.75 37.63H117.77V37.65V110.92V110.93H117.75C117.74 114.77 116.18 118.26 113.65 120.79C111.14 123.29 107.67 124.85 103.83 124.86V124.88H103.81H42.11H42.1V124.86C38.26 124.85 34.76 123.29 32.24 120.76C29.74 118.25 28.18 114.78 28.17 110.94H28.15V110.92V94.51H15.96H15.95V94.49C12.11 94.48 8.61 92.92 6.09 90.39C3.59 87.88 2.03 84.41 2.02 80.57H2V80.55V15.96V15.95H2.02C2.03 12.1 3.6 8.61 6.12 6.09C8.63 3.59 12.1 2.03 15.94 2.02V2H15.96H77.66H77.67V2.02C81.52 2.03 85.01 3.59 87.53 6.12C90.03 8.63 91.59 12.1 91.6 15.94H91.62V15.96ZM81.04 23.69V15.96V15.94H81.06C81.06 15.03 80.67 14.19 80.05 13.57C79.44 12.96 78.59 12.57 77.68 12.57V12.59H77.67H15.97H15.95V12.57C15.04 12.57 14.2 12.96 13.58 13.58C12.97 14.19 12.58 15.04 12.58 15.95H12.6V15.96V80.55V80.57H12.58C12.58 81.48 12.97 82.32 13.59 82.94C14.2 83.55 15.05 83.94 15.96 83.94V83.92H15.97H28.16V37.65V37.64H28.18C28.19 33.79 29.76 30.3 32.28 27.78C34.79 25.28 38.26 23.72 42.1 23.71V23.69H42.12H81.04ZM107.18 110.92V37.65V37.63H107.2C107.2 36.72 106.81 35.88 106.19 35.26C105.58 34.65 104.73 34.26 103.82 34.26V34.28H103.81H42.11H42.09V34.26C41.18 34.26 40.34 34.65 39.72 35.27C39.11 35.88 38.72 36.73 38.72 37.64H38.74V37.65V110.92V110.94H38.72C38.72 111.85 39.11 112.69 39.73 113.31C40.34 113.92 41.19 114.31 42.1 114.31V114.29H42.11H103.81H103.83V114.31C104.74 114.31 105.58 113.92 106.2 113.3C106.81 112.69 107.2 111.84 107.2 110.93H107.18V110.92Z" fill="black"/>
<path fill-rule="evenodd" clip-rule="evenodd" d="M91.62 15.96V23.69H103.81H103.82V23.71C107.67 23.72 111.16 25.28 113.68 27.81C116.18 30.32 117.74 33.79 117.75 37.63H117.77V37.65V110.92V110.93H117.75C117.74 114.77 116.18 118.26 113.65 120.79C111.14 123.29 107.67 124.85 103.83 124.86V124.88H103.81H42.11H42.1V124.86C38.26 124.85 34.76 123.29 32.24 120.76C29.74 118.25 28.18 114.78 28.17 110.94H28.15V110.92V94.51H15.96H15.95V94.49C12.11 94.48 8.61 92.92 6.09 90.39C3.59 87.88 2.03 84.41 2.02 80.57H2V80.55V15.96V15.95H2.02C2.03 12.1 3.6 8.61 6.12 6.09C8.63 3.59 12.1 2.03 15.94 2.02V2H15.96H77.66H77.67V2.02C81.52 2.03 85.01 3.59 87.53 6.12C90.03 8.63 91.59 12.1 91.6 15.94H91.62V15.96ZM81.04 23.69V15.96V15.94H81.06C81.06 15.03 80.67 14.19 80.05 13.57C79.44 12.96 78.59 12.57 77.68 12.57V12.59H77.67H15.97H15.95V12.57C15.04 12.57 14.2 12.96 13.58 13.58C12.97 14.19 12.58 15.04 12.58 15.95H12.6V15.96V80.55V80.57H12.58C12.58 81.48 12.97 82.32 13.59 82.94C14.2 83.55 15.05 83.94 15.96 83.94V83.92H15.97H28.16V37.65V37.64H28.18C28.19 33.79 29.76 30.3 32.28 27.78C34.79 25.28 38.26 23.72 42.1 23.71V23.69H42.12H81.04ZM107.18 110.92V37.65V37.63H107.2C107.2 36.72 106.81 35.88 106.19 35.26C105.58 34.65 104.73 34.26 103.82 34.26V34.28H103.81H42.11H42.09V34.26C41.18 34.26 40.34 34.65 39.72 35.27C39.11 35.88 38.72 36.73 38.72 37.64H38.74V37.65V110.92V110.94H38.72C38.72 111.85 39.11 112.69 39.73 113.31C40.34 113.92 41.19 114.31 42.1 114.31V114.29H42.11H103.81H103.83V114.31C104.74 114.31 105.58 113.92 106.2 113.3C106.81 112.69 107.2 111.84 107.2 110.93H107.18V110.92Z" stroke="black" stroke-width="4" mask="url(#path-1-outside-1_70_4)"/>
</svg>
