<svg width="48" height="48" viewBox="0 0 48 48" fill="none" xmlns="http://www.w3.org/2000/svg">
<rect width="48" height="48" rx="24" fill="#F4DE26"/>
<path fill-rule="evenodd" clip-rule="evenodd" d="M21.0852 13.4136C19.5959 14.1894 18.3775 14.8459 18.3777 14.8726C18.3784 14.9415 21.9521 16.7514 22.0789 16.747C22.1366 16.7451 22.5552 16.5524 23.009 16.3189L23.8343 15.8944L24.7356 16.3577L25.6369 16.8211L27.1129 16.1578C29.337 15.1584 29.568 15.0489 29.5318 15.0121C29.4837 14.9633 28.686 14.5348 26.5217 13.3954C25.4758 12.8447 24.4606 12.3047 24.2657 12.1955C24.0708 12.0862 23.8847 11.9983 23.8523 12C23.8198 12.0017 22.5745 12.6379 21.0852 13.4136ZM14.5531 16.7962L13.0028 17.597V21.1116C13.0028 23.0446 13.0232 24.6261 13.0481 24.6261C13.073 24.6261 13.8358 24.2955 14.7431 23.8913L16.3929 23.1566V19.452L17.199 19.8912C17.8203 20.2293 18.4419 20.5668 19.0638 20.9035L20.1224 21.4767L20.5935 21.2637C20.8889 21.1299 21.1837 20.9948 21.478 20.8584C21.7053 20.7525 22.2635 20.5011 22.7182 20.2997C23.173 20.0981 23.5939 19.8954 23.6536 19.8492C23.7329 19.7879 22.766 19.2535 20.0774 17.8729C18.0507 16.8321 16.3275 15.9839 16.248 15.988C16.1685 15.992 15.4059 16.3557 14.5531 16.7962ZM29.8112 17.021C28.7553 17.4977 27.8906 17.9068 27.8897 17.9301C27.8887 17.9534 28.4642 18.2956 29.1686 18.6904C29.8729 19.0853 30.4492 19.4295 30.4492 19.4554C30.4492 19.4813 29.826 19.7833 29.0643 20.1266C28.3025 20.4699 26.377 21.3395 24.7854 22.059L19.4522 24.4697C18.1106 25.0761 16.9014 25.6227 16.765 25.6845C14.0248 26.925 13.2716 27.2692 13.1682 27.3283C13.0642 27.3878 13.0406 27.7334 13.0221 29.4679L13 31.5366L14.3864 32.243L15.7728 32.9494L17.6952 32.0818C18.7525 31.6047 19.6176 31.1893 19.6176 31.1587C19.6176 31.1282 19.4222 31.0009 19.1835 30.8757C18.9447 30.7505 18.4517 30.4733 18.0879 30.2596C17.7241 30.0459 17.3614 29.8499 17.2817 29.8239C17.2021 29.798 17.1381 29.7526 17.1394 29.723C17.1407 29.6935 17.9873 29.2914 19.0205 28.8294C21.0273 27.9321 22.5631 27.2406 25.8602 25.7495C27.3346 25.0829 28.8091 24.4168 30.2839 23.751C31.5799 23.166 33.0869 22.4827 33.6326 22.2327L34.6248 21.778L34.6469 19.6857L34.669 17.5935L33.2629 16.8718C32.4895 16.4749 31.8284 16.1511 31.7937 16.1522C31.7591 16.1533 30.867 16.5443 29.8112 17.021ZM34.2481 24.5693C34.0409 24.6705 33.6316 24.86 33.3386 24.9903C33.0455 25.1207 32.4895 25.3716 32.1029 25.548L31.4001 25.8685L31.3841 27.7054C31.3752 28.7156 31.338 29.5377 31.3014 29.5324C31.2182 29.52 29.901 28.8445 28.5769 28.1349C27.6212 27.6229 27.5611 27.6026 27.3366 27.7138C27.2068 27.7781 26.4308 28.1261 25.6122 28.4873C24.7936 28.8484 24.0972 29.1674 24.0644 29.1963C24.0318 29.2251 25.6792 30.1181 27.7256 31.1807L31.4462 33.1127L33.0355 32.2906C33.9096 31.8384 34.6528 31.426 34.6871 31.3741C34.7641 31.2575 34.7575 24.3692 34.6804 24.3785C34.6499 24.3822 34.4553 24.468 34.2481 24.5693ZM25.4468 32.6544C25.1711 32.7729 24.8955 32.8916 24.62 33.0104C23.7879 33.3704 23.951 33.3824 22.9611 32.8896C22.3018 32.5614 22.0176 32.4601 21.8942 32.5093C21.8017 32.5461 21.0053 32.9044 20.1244 33.3054C19.2436 33.7064 18.4923 34.0345 18.4549 34.0345C18.0854 34.0345 18.6998 34.4016 21.0707 35.5975L23.8512 37L25.0211 36.4224C25.6645 36.1048 26.9623 35.4686 27.9052 35.0088C28.848 34.5489 29.6077 34.1607 29.5935 34.146C29.5791 34.1315 28.7892 33.7258 27.8379 33.2446L26.1083 32.3698L25.4468 32.6544Z" fill="#FF1126"/>
</svg>
