<svg width="48" height="48" viewBox="0 0 48 48" fill="none" xmlns="http://www.w3.org/2000/svg">
<rect width="48" height="48" rx="24" fill="#F4DE26"/>
<path fill-rule="evenodd" clip-rule="evenodd" d="M30.0169 16.1175C30.264 16.0135 30.5345 15.9776 30.8002 16.0136C31.0659 16.0496 31.317 16.1561 31.5276 16.3222C31.7381 16.4882 31.9003 16.7076 31.9973 16.9575C32.0942 17.2075 32.1224 17.4789 32.0789 17.7435L29.8109 31.5005C29.5909 32.8275 28.1349 33.5885 26.9179 32.9275C25.8999 32.3745 24.3879 31.5225 23.0279 30.6335C22.3479 30.1885 20.2649 28.7635 20.5209 27.7495C20.7409 26.8825 24.2409 23.6245 26.2409 21.6875C27.0259 20.9265 26.6679 20.4875 25.7409 21.1875C23.4389 22.9255 19.7429 25.5685 18.5209 26.3125C17.4429 26.9685 16.8809 27.0805 16.2089 26.9685C14.9829 26.7645 13.8459 26.4485 12.9179 26.0635C11.6639 25.5435 11.7249 23.8195 12.9169 23.3175L30.0169 16.1175Z" fill="#FF1126"/>
</svg>
