<svg width="48" height="48" viewBox="0 0 48 48" fill="none" xmlns="http://www.w3.org/2000/svg">
<rect width="48" height="48" rx="24" fill="#F4DE26"/>
<g clip-path="url(#clip0_71_27)">
<path d="M20.2167 14.8266C19.8916 14.7802 19.8761 14.7647 20.0309 14.7492C20.3251 14.7028 21.0062 14.7647 21.4861 14.8731C22.6006 15.1362 23.6068 15.8173 24.6749 17.0093L24.9535 17.3344L25.356 17.2724C27.0743 16.9938 28.839 17.2105 30.3096 17.8916C30.7121 18.0774 31.3467 18.4489 31.4241 18.5418C31.4551 18.5727 31.5015 18.774 31.5325 18.9752C31.6409 19.7028 31.5944 20.2446 31.3622 20.6625C31.2384 20.8947 31.2384 20.9566 31.3158 21.1579C31.3777 21.3127 31.5635 21.421 31.7337 21.421C32.1052 21.421 32.4922 20.8328 32.678 20.0124L32.7554 19.6873L32.8947 19.8421C33.6842 20.7244 34.3034 21.9474 34.3963 22.8142L34.4272 23.0464L34.2879 22.8452C34.0557 22.4891 33.839 22.257 33.5449 22.0557C33.0186 21.6997 32.4613 21.5913 30.9907 21.5139C29.6594 21.4365 28.9009 21.3282 28.1579 21.0805C26.8885 20.6625 26.2384 20.1207 24.7368 18.1238C24.0712 17.2415 23.6532 16.7616 23.2353 16.3591C22.322 15.4768 21.4087 15.0124 20.2167 14.8266Z" fill="#FF1126"/>
<path d="M31.7491 16.7926C31.7801 16.2043 31.8575 15.8173 32.0278 15.4613C32.0897 15.322 32.1516 15.1982 32.1671 15.1982C32.1826 15.1982 32.1516 15.3065 32.1052 15.4303C31.9813 15.7709 31.9658 16.2508 32.0432 16.7926C32.1516 17.4892 32.198 17.5821 32.9411 18.3406C33.2816 18.6966 33.6841 19.1455 33.8389 19.3313L34.1021 19.6718L33.8389 19.4242C33.5138 19.1146 32.7708 18.5263 32.6005 18.4489C32.4922 18.387 32.4767 18.387 32.3993 18.4644C32.3374 18.5263 32.3219 18.6192 32.3219 19.0681C32.3064 19.7647 32.2135 20.1981 31.9813 20.6471C31.8575 20.8793 31.842 20.8328 31.9504 20.5697C32.0278 20.3684 32.0432 20.2755 32.0432 19.6099C32.0432 18.2632 31.8885 17.9381 30.9442 17.3963C30.712 17.257 30.3095 17.0557 30.0773 16.9474C29.8296 16.839 29.6439 16.7461 29.6593 16.7461C29.6903 16.7152 30.6036 16.9783 30.9597 17.1331C31.5015 17.3499 31.5943 17.3653 31.6563 17.3499C31.7027 17.3034 31.7337 17.1796 31.7491 16.7926Z" fill="#FF1126"/>
<path d="M20.8514 19.0991C20.2012 18.2012 19.7833 16.8081 19.8762 15.7709L19.9071 15.4458L20.0619 15.4768C20.3406 15.5232 20.8204 15.709 21.0526 15.8483C21.6718 16.2198 21.9505 16.7307 22.2136 18C22.291 18.3715 22.3994 18.805 22.4458 18.9443C22.5232 19.1765 22.8173 19.7183 23.065 20.0588C23.2353 20.3065 23.1269 20.4304 22.7399 20.3994C22.1517 20.3375 21.3622 19.7957 20.8514 19.0991Z" fill="#FF1126"/>
<path d="M30.9596 25.8328C27.8946 24.5944 26.811 23.5263 26.811 21.7152C26.811 21.452 26.8265 21.2353 26.8265 21.2353C26.842 21.2353 26.9504 21.3282 27.0897 21.4365C27.7089 21.9319 28.4055 22.1486 30.3404 22.4272C31.4705 22.5975 32.1206 22.7214 32.7089 22.9226C34.5819 23.5418 35.7429 24.8111 36.0216 26.5294C36.099 27.0248 36.0525 27.969 35.9287 28.4644C35.8203 28.8514 35.5107 29.5635 35.4333 29.5789C35.4178 29.5789 35.3869 29.5015 35.3869 29.3777C35.3559 28.7276 35.0308 28.1084 34.4891 27.6285C33.8389 27.0712 33.003 26.6532 30.9596 25.8328Z" fill="#FF1126"/>
<path d="M28.7925 26.3437C28.7616 26.1115 28.6842 25.8173 28.6377 25.6935L28.5603 25.4613L28.6997 25.6316C28.9009 25.8638 29.0557 26.1424 29.195 26.5294C29.3034 26.8235 29.3034 26.9164 29.3034 27.3963C29.3034 27.8607 29.2879 27.969 29.195 28.2322C29.0402 28.6502 28.8544 28.9443 28.5449 29.2694C27.9876 29.8421 27.26 30.1517 26.2229 30.291C26.0371 30.3065 25.5108 30.3529 25.0464 30.3839C23.8854 30.4458 23.1114 30.5697 22.4148 30.8173C22.3219 30.8483 22.2291 30.8793 22.2136 30.8638C22.1826 30.8328 22.6625 30.5542 23.0495 30.3684C23.5913 30.1053 24.1486 29.9659 25.3715 29.7492C25.9752 29.6563 26.5944 29.5325 26.7492 29.4706C28.2817 28.9907 29.0402 27.7988 28.7925 26.3437Z" fill="#FF1126"/>
<path d="M30.2013 28.8359C29.7988 27.9536 29.7059 27.1176 29.9226 26.3282C29.9536 26.2508 29.9845 26.1734 30.0155 26.1734C30.0465 26.1734 30.1393 26.2198 30.2322 26.2817C30.418 26.4056 30.805 26.6223 31.7957 27.1641C33.0496 27.8452 33.7616 28.3715 34.257 28.9752C34.6904 29.5015 34.9536 30.1053 35.0774 30.8483C35.1548 31.2663 35.1084 32.2724 35 32.6904C34.6595 34.0062 33.8855 35.0588 32.7554 35.6625C32.5852 35.7554 32.4458 35.8173 32.4304 35.8173C32.4149 35.8173 32.4768 35.6625 32.5697 35.4768C32.9412 34.6873 32.9876 33.9288 32.709 33.0774C32.5387 32.5511 32.1827 31.9164 31.4706 30.8483C30.6192 29.6099 30.418 29.2848 30.2013 28.8359Z" fill="#FF1126"/>
<path d="M18.6688 33.5728C19.8143 32.613 21.223 31.9319 22.5233 31.7152C23.0806 31.6223 24.0094 31.6533 24.5202 31.7926C25.3407 32.0093 26.0837 32.4737 26.4707 33.0464C26.8422 33.6037 27.0125 34.0836 27.1828 35.1517C27.2447 35.5697 27.3221 36.0031 27.3376 36.096C27.4614 36.6533 27.7091 37.0867 28.0187 37.3189C28.4985 37.6749 29.3345 37.6904 30.1549 37.3808C30.2942 37.3344 30.4181 37.2879 30.4181 37.3034C30.449 37.3344 30.0311 37.613 29.7524 37.7523C29.3654 37.9536 29.0558 38.0155 28.6379 38.0155C27.8948 38.0155 27.2602 37.6285 26.7493 36.8545C26.641 36.6997 26.4242 36.2508 26.2385 35.8328C25.6967 34.5789 25.4181 34.2074 24.7834 33.7895C24.2261 33.4334 23.514 33.356 22.9722 33.6192C22.2602 33.9598 22.0744 34.8731 22.5698 35.4303C22.771 35.6625 23.1425 35.8483 23.4521 35.8947C24.0249 35.9721 24.5202 35.5232 24.5202 34.9505C24.5202 34.5789 24.3809 34.3622 24.0094 34.1919C23.514 33.9752 22.9722 34.2229 22.9877 34.7028C22.9877 34.904 23.0806 35.0279 23.2818 35.1207C23.4057 35.1827 23.4057 35.1827 23.3128 35.1672C22.8639 35.0743 22.7555 34.517 23.1116 34.161C23.545 33.7276 24.4583 33.9133 24.7679 34.517C24.8917 34.7647 24.9072 35.2601 24.7989 35.5697C24.5357 36.2508 23.7927 36.6068 23.0342 36.4056C22.5233 36.2663 22.3066 36.1269 21.6874 35.4923C20.6038 34.3777 20.1859 34.161 18.6379 33.9288L18.3438 33.8824L18.6688 33.5728Z" fill="#FF1126"/>
<path fill-rule="evenodd" clip-rule="evenodd" d="M10.5265 8.66563C14.1333 13.0464 19.6906 19.8576 19.9692 20.2291C20.2014 20.5387 20.1086 20.8328 19.7216 21.0495C19.5048 21.1734 19.0559 21.2972 18.8392 21.2972C18.5915 21.2972 18.2974 21.1734 18.0962 20.9721C17.9569 20.8328 17.3531 19.9505 15.9909 17.8297C14.9538 16.2043 14.0714 14.8576 14.0559 14.8421C13.994 14.8111 13.994 14.8111 15.8826 18.1858C17.0745 20.3065 17.4615 21.065 17.4615 21.1579C17.4615 21.3591 17.3996 21.4675 17.1519 21.7461C16.7339 22.2105 16.5482 22.7368 16.4089 23.8359C16.2541 25.0588 15.8361 25.9257 14.6442 27.3963C13.9476 28.2632 13.8392 28.418 13.6689 28.774C13.4522 29.2074 13.3903 29.4551 13.3593 30.0124C13.3284 30.6006 13.3903 30.9721 13.5606 31.5294C13.7154 32.0248 13.8856 32.3498 14.3036 32.9845C14.6596 33.5418 14.8764 33.9598 14.8764 34.1146C14.8764 34.2384 14.9073 34.2384 15.4646 34.1146C16.7959 33.805 17.8949 33.2786 18.4987 32.6285C18.8702 32.226 18.963 32.0093 18.963 31.452C18.963 31.096 18.9476 31.0186 18.8547 30.8019C18.6999 30.4613 18.4058 30.1827 17.7711 29.7492C16.9352 29.1765 16.5791 28.7121 16.4863 28.0929C16.4089 27.5666 16.5017 27.2105 16.9661 26.2353C17.446 25.2291 17.5699 24.8111 17.6473 23.7895C17.6937 23.1393 17.7711 22.8762 17.9569 22.6749C18.1581 22.4582 18.3284 22.3808 18.8082 22.3189C19.5977 22.2105 20.1086 22.0093 20.511 21.6223C20.8671 21.2972 21.0219 20.9721 21.0374 20.4923L21.0528 20.1362L20.8516 19.9195C20.124 19.0836 10.0466 8 10.0002 8C9.98472 8 10.2324 8.29412 10.5265 8.66563ZM15.2788 30.678C15.4491 30.3839 15.3562 30.0124 15.0776 29.8266C14.8144 29.6563 14.412 29.7337 14.412 29.9659C14.412 30.0279 14.4429 30.0898 14.5358 30.1207C14.6751 30.1981 14.6906 30.2755 14.5822 30.4458C14.4739 30.6161 14.4739 30.7709 14.6132 30.8793C14.8299 31.0495 15.124 30.9567 15.2788 30.678Z" fill="#FF1126"/>
<path fill-rule="evenodd" clip-rule="evenodd" d="M21.5479 22.5356C21.1764 22.644 20.8203 23.0464 20.712 23.4489C20.6501 23.6966 20.681 24.1455 20.7894 24.2848C20.9597 24.5016 21.1145 24.5635 21.5479 24.5635C22.3993 24.5635 23.1268 24.192 23.2042 23.743C23.2816 23.3715 22.9566 22.8607 22.5076 22.6285C22.2754 22.5047 21.7956 22.4582 21.5479 22.5356ZM22.5386 23.3096C22.6624 23.1238 22.616 22.9226 22.3838 22.7833C21.9658 22.5201 21.3312 22.7369 21.3312 23.1393C21.3312 23.3406 21.6563 23.5573 21.9658 23.5573C22.1671 23.5573 22.4457 23.4334 22.5386 23.3096Z" fill="#FF1126"/>
</g>
<defs>
<clipPath id="clip0_71_27">
<rect width="26.0526" height="30" fill="white" transform="translate(10 8)"/>
</clipPath>
</defs>
</svg>
