<svg width="48" height="48" viewBox="0 0 48 48" fill="none" xmlns="http://www.w3.org/2000/svg">
<g id="mage:coin-b-fill">
<path id="Vector" d="M24 6.5C12.82 6.5 4 12.14 4 19.42V28.58C4 35.82 12.78 41.5 24 41.5C35.22 41.5 44 35.82 44 28.58V19.44C44 12.18 35.14 6.5 24 6.5ZM24 12.24C31.38 12.24 36.94 15.34 36.94 19.44C36.9053 20.6672 36.4131 21.8371 35.56 22.72C33.56 25.08 29.04 26.58 24 26.58C18.96 26.58 14.5 25.08 12.38 22.58C11.551 21.7107 11.0798 20.5611 11.06 19.36C10.98 15.34 16.54 12.24 24 12.24ZM41 28.58C41 33.96 33.22 38.58 24 38.58C14.78 38.58 7 34.04 7 28.58V26.28C10.56 30.02 17 32.28 24 32.28C31 32.28 37.46 29.92 41 26.28V28.58Z" fill="#EA372B"/>
<path id="Vector_2" d="M33.86 19.42C33.8326 19.9098 33.6262 20.3725 33.28 20.72C32 22.18 28.62 23.62 23.92 23.62C19.22 23.62 15.92 22.18 14.5 20.66C14.1794 20.3332 13.9937 19.8976 13.98 19.44C13.98 17.44 18.22 15.24 23.98 15.24C29.74 15.24 33.84 17.44 33.86 19.42Z" fill="#EA372B"/>
</g>
</svg>
