<svg width="48" height="48" viewBox="0 0 48 48" fill="none" xmlns="http://www.w3.org/2000/svg">
<g id="ri:wallet-fill">
<path id="Vector" d="M4.01001 18H42.01C42.5404 18 43.0492 18.2107 43.4242 18.5858C43.7993 18.9609 44.01 19.4696 44.01 20V40C44.01 40.5304 43.7993 41.0391 43.4242 41.4142C43.0492 41.7893 42.5404 42 42.01 42H6.01001C5.47958 42 4.97087 41.7893 4.5958 41.4142C4.22072 41.0391 4.01001 40.5304 4.01001 40V18ZM6.01001 6H36.01V14H4.01001V8C4.01001 7.46957 4.22072 6.96086 4.5958 6.58579C4.97087 6.21071 5.47958 6 6.01001 6ZM30.01 28V32H36.01V28H30.01Z" fill="#EA372B"/>
</g>
</svg>
